<svg width="144" height="37" viewBox="0 0 144 37" fill="none" xmlns="http://www.w3.org/2000/svg">
<path d="M27.1222 13.1104C26.5345 12.2618 25.7117 11.6001 24.7532 11.2052C23.701 10.7816 22.5734 10.5729 21.438 10.5917C20.2463 10.5757 19.0677 10.8385 17.9975 11.3586C16.9801 11.8583 16.0798 12.5643 15.3549 13.431C14.6052 14.3327 14.0287 15.3631 13.6539 16.4712C13.2482 17.666 13.046 18.9195 13.0555 20.1803C13.0555 21.8942 13.5957 23.3448 14.676 24.532C15.7564 25.7193 17.3764 26.3124 19.536 26.3114C20.7619 26.3197 21.9733 26.049 23.0771 25.5199C24.1202 25.0286 25.0793 24.3779 25.9192 23.5917L31.6033 32.0023C30.8327 32.6495 30.0252 33.2523 29.1849 33.8077C28.2062 34.4521 27.1612 34.9915 26.0676 35.4168C24.7991 35.9091 23.4896 36.29 22.1539 36.555C20.5697 36.8644 18.9579 37.0135 17.3434 36.9999C14.6838 36.9999 12.3153 36.6373 10.2382 35.9123C8.2754 35.2538 6.47491 34.1917 4.95446 32.7953C3.50013 31.426 2.36998 29.7537 1.64538 27.899C0.88151 25.9898 0.499575 23.8627 0.499575 21.5179C0.475997 18.6411 1.00878 15.7865 2.06907 13.1088C3.06771 10.5653 4.56747 8.24472 6.48068 6.28281C8.39388 4.3209 10.6821 2.75702 13.2117 1.68257C15.8033 0.557689 18.6449 -0.00475311 21.7364 -0.00475311C24.795 -0.00475311 27.4876 0.465653 29.8143 1.40647C32.1409 2.34728 33.9192 3.50949 35.149 4.8931L27.1222 13.1104ZM66.6146 36.0074H55.0962L57.4899 22.5533H47.4173L45.0252 36.0074H33.5068L39.7431 0.993837H51.2104L49.0626 13.0091H59.1352L61.2783 0.993837H72.8462L66.6146 36.0074ZM100.915 10.5441H88.6988L88.1004 13.908H99.7672L98.1714 22.814H86.5046L85.8567 26.4709H99.5183L97.8173 36.0151H73.2977L79.5246 0.993837H102.609L100.908 10.5364L100.915 10.5441ZM141.18 22.7803C140.715 23.738 140.144 24.6419 139.479 25.4754C138.989 26.1158 138.409 26.6839 137.758 27.1627L137.709 27.3606L143.492 27.0155L141.896 36.0135H121.507C118.845 36.0135 116.442 35.6756 114.299 34.9996C112.156 34.3237 110.319 33.3424 108.788 32.056C107.268 30.7833 106.057 29.186 105.247 27.3836C104.415 25.5531 103.999 23.4839 103.999 21.1758C103.983 18.3642 104.516 15.5761 105.57 12.9662C106.571 10.4637 108.063 8.18357 109.96 6.2583C111.89 4.32956 114.187 2.80029 116.718 1.75927C119.345 0.654838 122.255 0.102111 125.447 0.101088C128.14 0.101088 130.567 0.455938 132.728 1.16564C134.889 1.87534 136.727 2.88109 138.242 4.18288C139.752 5.47972 140.953 7.09283 141.758 8.90586C142.59 10.7527 143.006 12.8138 143.006 15.0891C143.016 16.4987 142.839 17.9033 142.482 19.2676C142.166 20.4781 141.73 21.6547 141.18 22.7803ZM130.557 14.2424C130.286 13.5039 129.861 12.8302 129.311 12.2652C128.729 11.684 128.032 11.2295 127.263 10.9307C126.382 10.5883 125.442 10.42 124.496 10.4352C123.278 10.4191 122.073 10.6915 120.982 11.2298C119.957 11.7408 119.049 12.4562 118.315 13.3313C117.573 14.2201 116.997 15.233 116.614 16.3224C116.217 17.4341 116.014 18.6051 116.016 19.7845C116.012 20.6163 116.146 21.4431 116.415 22.2311C116.669 22.9869 117.086 23.6789 117.636 24.259C118.215 24.858 118.914 25.3312 119.687 25.6487C120.597 26.0122 121.572 26.1886 122.553 26.1672C123.792 26.186 125.017 25.9026 126.119 25.342C127.147 24.8145 128.056 24.0836 128.788 23.1945C129.526 22.2932 130.084 21.2609 130.433 20.1527C130.798 19.0264 130.983 17.8505 130.982 16.6676C130.988 15.8411 130.844 15.0203 130.559 14.244L130.557 14.2424Z" fill="#FE0072"/>
</svg>
